<svg width="25" height="26" viewBox="0 0 25 26" fill="none" xmlns="http://www.w3.org/2000/svg">
<path fill-rule="evenodd" clip-rule="evenodd" d="M24.6195 23.585L18.4564 17.1755C20.0409 15.2918 20.9091 12.9218 20.9091 10.4545C20.9091 4.69 16.2191 0 10.4545 0C4.69 0 0 4.69 0 10.4545C0 16.2191 4.69 20.9091 10.4545 20.9091C12.6186 20.9091 14.6809 20.2564 16.4441 19.0173L22.6536 25.4755C22.9132 25.745 23.2623 25.8936 23.6364 25.8936C23.9905 25.8936 24.3264 25.7582 24.5814 25.5127C25.1236 24.9918 25.1405 24.1273 24.6195 23.585ZM10.4545 2.72727C14.7155 2.72727 18.1818 6.19364 18.1818 10.4545C18.1818 14.7155 14.7155 18.1818 10.4545 18.1818C6.19364 18.1818 2.72727 14.7155 2.72727 10.4545C2.72727 6.19364 6.19364 2.72727 10.4545 2.72727Z" fill="#03151E"/>
</svg>
